<?xml version="1.0" encoding="UTF-8" standalone="no"?>
<!-- Created with Inkscape (http://www.inkscape.org/) -->

<svg
   width="80mm"
   height="80mm"
   viewBox="0 0 80 80"
   version="1.1"
   id="svg5"
   xml:space="preserve"
   inkscape:version="1.2.2 (b0a8486541, 2022-12-01)"
   sodipodi:docname="player.svg"
   inkscape:export-filename="player.png"
   inkscape:export-xdpi="149.86"
   inkscape:export-ydpi="149.86"
   xmlns:inkscape="http://www.inkscape.org/namespaces/inkscape"
   xmlns:sodipodi="http://sodipodi.sourceforge.net/DTD/sodipodi-0.dtd"
   xmlns:xlink="http://www.w3.org/1999/xlink"
   xmlns="http://www.w3.org/2000/svg"
   xmlns:svg="http://www.w3.org/2000/svg"><sodipodi:namedview
     id="namedview7"
     pagecolor="#505050"
     bordercolor="#eeeeee"
     borderopacity="1"
     inkscape:showpageshadow="0"
     inkscape:pageopacity="0"
     inkscape:pagecheckerboard="0"
     inkscape:deskcolor="#505050"
     inkscape:document-units="mm"
     showgrid="false"
     inkscape:zoom="2"
     inkscape:cx="61"
     inkscape:cy="64.25"
     inkscape:window-width="1920"
     inkscape:window-height="1015"
     inkscape:window-x="0"
     inkscape:window-y="0"
     inkscape:window-maximized="1"
     inkscape:current-layer="g11476" /><defs
     id="defs2"><linearGradient
       inkscape:collect="always"
       id="linearGradient14203"><stop
         style="stop-color:#e0eeff;stop-opacity:1;"
         offset="0"
         id="stop14199" /><stop
         style="stop-color:#95a5c9;stop-opacity:1;"
         offset="1"
         id="stop14201" /></linearGradient><linearGradient
       inkscape:collect="always"
       xlink:href="#linearGradient14203"
       id="linearGradient14205"
       x1="44.740211"
       y1="38.736012"
       x2="104.25688"
       y2="103.8973"
       gradientUnits="userSpaceOnUse"
       gradientTransform="translate(3.4779484,0.655377)" /></defs><g
     inkscape:label="Layer 1"
     inkscape:groupmode="layer"
     id="layer1"
     transform="translate(-37.336218,-109.15538)"><g
       id="g11476"
       transform="translate(7.9513898,84.363991)"
       style="fill:#ffefef;fill-opacity:1;stroke:#281515;stroke-width:0.5;stroke-dasharray:none;stroke-opacity:1"
       class="UnoptimicedTransforms"><path
         id="path11480"
         style="fill:url(#linearGradient14205);fill-opacity:1;stroke:#202124;stroke-width:0;stroke-dasharray:none;stroke-opacity:1"
         d="m 65.151495,25.280107 v 5.644617 5.644615 h -8.466667 -8.466666 v 1.410767 1.411283 h -2.82205 -2.82205 v 2.822051 2.822566 h -1.411284 -1.411283 v 1.410768 1.411282 h -1.410767 -1.411283 v 1.411283 1.410766 h -1.411283 -1.410767 v 1.411283 1.411285 h -1.411283 -1.411284 v 5.644099 5.644618 h 1.411284 1.411283 v 1.411283 1.410765 h 5.6441 5.644617 V 66.202673 64.79139 h 1.411283 1.410767 v -1.411283 -1.410768 h 1.411283 1.411283 v -4.233333 -4.233333 h -1.411283 -1.411283 v -2.822567 -2.822051 h 2.822566 2.82205 v 1.411283 1.410768 h 1.411284 1.410766 v 5.644616 5.644616 h -1.410766 -1.411284 v 8.466667 8.466668 h -1.411283 -1.410767 v 8.466666 8.466667 h -1.411283 -1.411283 v 4.233334 4.23333 h 22.57795 22.57795 v -4.23333 -4.233334 h -1.411284 -1.411283 v -8.466667 -8.466666 h -1.410767 -1.411283 v -8.466668 -8.466667 h -1.411283 -1.410767 v -1.411282 -1.411283 h -1.411283 -1.411284 v -4.233334 -4.233333 h 1.411284 1.411283 v -1.410768 -1.411283 h 2.82205 2.82205 v 1.411283 1.410768 h 1.411283 1.411284 v 2.822566 2.82205 h -1.411284 -1.411283 v 7.055383 7.0559 h 8.466667 8.466668 v -2.822567 -2.82205 h -1.41077 -1.41128 v -4.233332 -4.233333 h -1.41128 -1.41077 v -1.411285 -1.410765 h -1.41129 -1.411278 v -5.644617 -5.644618 h -1.410767 -1.411283 v -1.410766 -1.411283 h -2.82205 -2.822567 v -1.411283 -1.410768 h -7.055383 -7.055384 v -5.644615 -5.644618 h -1.411283 -1.411283 v 2.822567 2.822051 h -2.82205 -2.82205 v -2.822051 -2.822567 h -1.411284 z m 2.822567,42.333333 h 2.82205 2.82205 v 12.7 12.7 h -2.82205 -2.82205 v -12.7 z" /></g></g></svg>
