<?xml version="1.0" encoding="UTF-8" standalone="no"?>
<!-- Created with Inkscape (http://www.inkscape.org/) -->

<svg
   width="81.844444mm"
   height="84.666664mm"
   viewBox="0 0 81.844444 84.666664"
   version="1.1"
   id="svg5"
   xml:space="preserve"
   inkscape:version="1.2.2 (b0a8486541, 2022-12-01)"
   sodipodi:docname="player.svg"
   xmlns:inkscape="http://www.inkscape.org/namespaces/inkscape"
   xmlns:sodipodi="http://sodipodi.sourceforge.net/DTD/sodipodi-0.dtd"
   xmlns="http://www.w3.org/2000/svg"
   xmlns:svg="http://www.w3.org/2000/svg"><sodipodi:namedview
     id="namedview7"
     pagecolor="#505050"
     bordercolor="#eeeeee"
     borderopacity="1"
     inkscape:showpageshadow="0"
     inkscape:pageopacity="0"
     inkscape:pagecheckerboard="0"
     inkscape:deskcolor="#505050"
     inkscape:document-units="mm"
     showgrid="false"
     inkscape:zoom="2.4093751"
     inkscape:cx="154.81193"
     inkscape:cy="159.99999"
     inkscape:window-width="1920"
     inkscape:window-height="1015"
     inkscape:window-x="0"
     inkscape:window-y="0"
     inkscape:window-maximized="1"
     inkscape:current-layer="layer1" /><defs
     id="defs2" /><g
     inkscape:label="Layer 1"
     inkscape:groupmode="layer"
     id="layer1"
     transform="translate(-32.936219,-106.16667)"><g
       id="g11476"
       transform="translate(7.9513898,84.363991)"><path
         style="fill:#fefefe;stroke-width:0.352778"
         d="M 67.318162,106.46934 H 41.918163 v -7.055552 -7.055555 h 1.411111 1.411111 v -8.466667 -8.466667 h 1.411111 1.411111 v -4.233333 -4.233333 h -1.411111 -1.411111 v 1.411111 1.411111 H 36.273718 27.807051 V 68.369344 66.958233 H 26.39594 24.984829 v -8.466667 -8.466667 h 1.411111 1.411111 v -1.411111 -1.411111 h 1.411112 1.411111 v -1.411111 -1.411111 h 1.411111 1.411111 v -1.411111 -1.411111 h 1.411111 1.411111 v -2.822222 -2.822223 h 2.822222 2.822223 v -1.411111 -1.411111 h 8.466666 8.466667 v -5.644444 -5.644445 h 8.466666 8.466667 v 5.644445 5.644444 h 7.055556 7.055555 v 1.411111 1.411111 h 2.822222 2.822223 v 1.411111 1.411112 h 1.411111 1.411111 v 5.644444 5.644444 h 1.411111 1.411112 v 1.411112 1.411111 h 1.41111 1.41111 v 4.233333 4.233333 h 1.41111 1.41111 v 5.644445 5.644444 h -9.877774 -9.877778 v 1.411111 1.411111 h 1.411111 1.411111 v 8.466667 8.466667 h 1.411111 1.411111 v 7.055555 7.055552 z"
         id="path11480" /><path
         style="fill:#000000;stroke-width:0.352778"
         d="M 67.318162,106.46934 H 41.918163 v -7.055552 -7.055555 h 1.411111 1.411111 v -8.466667 -8.466667 h 1.411111 1.411111 v -4.233333 -4.233333 h -1.411111 -1.411111 v 1.411111 1.411111 H 36.273718 27.807051 V 68.369344 66.958233 H 26.39594 24.984829 v -8.466667 -8.466667 h 1.411111 1.411111 v -1.411111 -1.411111 h 1.411112 1.411111 v -1.411111 -1.411111 h 1.411111 1.411111 v -1.411111 -1.411111 h 1.411111 1.411111 v -2.822222 -2.822223 h 2.822222 2.822223 v -1.411111 -1.411111 h 8.466666 8.466667 v -5.644444 -5.644445 h 8.466666 8.466667 v 5.644445 5.644444 h 7.055556 7.055555 v 1.411111 1.411111 h 2.822222 2.822223 v 1.411111 1.411112 h 1.411111 1.411111 v 5.644444 5.644444 h 1.411111 1.411112 v 1.411112 1.411111 h 1.41111 1.41111 v 4.233333 4.233333 h 1.41111 1.41111 v 5.644445 5.644444 h -9.877774 -9.877778 v 1.411111 1.411111 h 1.411111 1.411111 v 8.466667 8.466667 h 1.411111 1.411111 v 7.055555 7.055552 z m 0,-2.82222 H 89.89594 v -4.233332 -4.233333 h -1.411111 -1.411111 v -8.466667 -8.466666 h -1.411111 -1.411111 v -8.466667 -8.466667 h -1.411111 -1.411111 v -1.411111 -1.411111 h -1.411112 -1.411111 v -4.233333 -4.233334 h 1.411111 1.411112 v -1.411111 -1.411111 h 2.822222 2.822222 v 1.411111 1.411111 h 1.411111 1.411111 v 2.822223 2.822222 h -1.411111 -1.411111 v 7.055555 7.055556 h 8.466667 8.466665 V 66.958233 64.13601 h -1.41111 -1.41111 V 59.902677 55.669344 H 99.773718 98.362607 V 54.258233 52.847122 H 96.951496 95.540385 V 47.202677 41.558233 H 94.129274 92.718162 V 40.147122 38.736011 H 89.89594 87.073718 v -1.411112 -1.411111 h -7.055556 -7.055555 v -5.644444 -5.644445 h -1.411111 -1.411111 v 2.822223 2.822222 H 67.318162 64.49594 v -2.822222 -2.822223 h -1.411111 -1.411111 v 5.644445 5.644444 h -8.466667 -8.466666 v 1.411111 1.411112 H 41.918163 39.09594 v 2.822222 2.822222 h -1.411111 -1.411111 v 1.411111 1.411111 h -1.411111 -1.411111 v 1.411111 1.411111 h -1.411111 -1.411111 v 1.411112 1.411111 h -1.411111 -1.411112 v 5.644444 5.644444 h 1.411112 1.411111 v 1.411112 1.411111 h 5.644444 5.644445 V 65.547122 64.13601 h 1.411111 1.411111 v -1.411111 -1.411111 h 1.411111 1.411111 v -4.233333 -4.233333 h -1.411111 -1.411111 v -2.822223 -2.822222 h 2.822222 2.822222 v 1.411111 1.411111 h 1.411111 1.411111 v 5.644445 5.644444 H 51.79594 50.384829 v 8.466667 8.466667 h -1.411111 -1.411111 v 8.466666 8.466667 h -1.411111 -1.411111 v 4.233333 4.233332 z m 0,-11.288887 H 64.49594 v -12.7 -12.7 h 2.822222 2.822223 v 12.7 12.7 z"
         id="path11478" /></g></g></svg>
